<?xml version="1.0" encoding="utf-8"?>
<!-- Generator: Adobe Illustrator 16.0.0, SVG Export Plug-In . SVG Version: 6.00 Build 0)  -->
<!DOCTYPE svg PUBLIC "-//W3C//DTD SVG 1.1//EN" "http://www.w3.org/Graphics/SVG/1.1/DTD/svg11.dtd">
<svg version="1.1" id="Layer_1" xmlns="http://www.w3.org/2000/svg" xmlns:xlink="http://www.w3.org/1999/xlink" x="0px" y="0px"
	 width="278px" height="49px" viewBox="0 0 278 49" enable-background="new 0 0 278 49" xml:space="preserve">
<g>
	<g>
		<path fill="#F2F2F2" d="M22.362,25.401l-0.812,2.1H3.74l7.56-18.57h4.161l-6.698,16.47H22.362z"/>
		<path fill="#F2F2F2" d="M34.083,27.801c-1.319,0-2.419-0.115-3.298-0.345c-0.88-0.229-1.598-0.54-2.156-0.93
			c-0.558-0.391-0.957-0.851-1.192-1.381c-0.237-0.529-0.355-1.095-0.355-1.694c0-0.46,0.067-0.92,0.203-1.38
			c0.135-0.46,0.287-0.92,0.457-1.38l2.892-7.11h4.212l-2.689,6.57c-0.17,0.42-0.364,0.904-0.583,1.455
			c-0.221,0.55-0.33,1.104-0.33,1.664c0,0.32,0.051,0.626,0.152,0.915c0.102,0.291,0.287,0.551,0.558,0.78
			c0.271,0.23,0.642,0.41,1.116,0.54c0.474,0.131,1.083,0.195,1.827,0.195c1.285,0,2.436-0.165,3.45-0.495s1.843-0.715,2.486-1.155
			c0.033-0.279,0.076-0.574,0.127-0.885c0.051-0.31,0.16-0.646,0.33-1.005l3.501-8.58h4.161l-3.552,8.79
			c-0.17,0.42-0.305,0.82-0.406,1.2s-0.152,0.779-0.152,1.199c0,0.421,0.059,0.831,0.178,1.23c0.118,0.4,0.33,0.851,0.634,1.35
			l-3.704,0.301c-0.169-0.2-0.33-0.425-0.482-0.676c-0.152-0.249-0.263-0.515-0.33-0.795c-0.677,0.36-1.59,0.721-2.74,1.08
			C37.246,27.621,35.809,27.801,34.083,27.801z"/>
		<path fill="#F2F2F2" d="M51.691,13.971c2.131-0.46,4.076-0.69,5.835-0.69c0.947,0,1.784,0.085,2.512,0.255
			c0.727,0.17,1.311,0.425,1.75,0.765c1.657-0.68,3.281-1.02,4.871-1.02c0.778,0,1.479,0.09,2.106,0.27
			c0.625,0.18,1.133,0.45,1.522,0.81c0.388,0.36,0.634,0.81,0.735,1.35c0.102,0.54,0,1.17-0.304,1.89l-3.958,9.9h-3.806l4.009-9.96
			c0.305-0.72,0.287-1.27-0.051-1.65c-0.338-0.38-0.896-0.57-1.674-0.57c-0.846,0-1.708,0.25-2.588,0.75
			c0,0.221-0.018,0.46-0.051,0.72c-0.034,0.26-0.119,0.53-0.254,0.81l-1.827,4.53h-3.805l1.877-4.56
			c0.304-0.7,0.355-1.25,0.152-1.65c-0.203-0.4-0.795-0.6-1.776-0.6c-0.609,0-1.319,0.09-2.131,0.27l-4.872,11.91H46.21
			L51.691,13.971z"/>
		<path fill="#F2F2F2" d="M81.932,21.351c-0.169,0.4-0.313,0.78-0.431,1.141c-0.119,0.359-0.178,0.71-0.178,1.05
			c0,0.561,0.245,1.025,0.736,1.395c0.49,0.371,1.429,0.556,2.816,0.556c0.575,0,1.133-0.025,1.675-0.075
			c0.541-0.05,1.048-0.115,1.522-0.195l-0.253,2.101c-0.237,0.04-0.668,0.095-1.294,0.165c-0.626,0.069-1.515,0.104-2.664,0.104
			c-1.252,0-2.309-0.1-3.171-0.3s-1.556-0.47-2.081-0.81s-0.896-0.74-1.116-1.2c-0.22-0.46-0.33-0.96-0.33-1.5
			c0-0.42,0.059-0.851,0.177-1.29c0.118-0.439,0.262-0.89,0.432-1.351l2.283-5.49h-6.799l0.812-2.07h10.96L81.932,21.351z
			 M83.201,11.421c-0.88,0-1.607-0.15-2.182-0.45c-0.576-0.3-0.863-0.74-0.863-1.32c0-0.7,0.372-1.25,1.116-1.65
			c0.744-0.4,1.573-0.6,2.486-0.6c0.879,0,1.615,0.161,2.208,0.48c0.591,0.32,0.888,0.771,0.888,1.35c0,0.34-0.11,0.64-0.33,0.9
			c-0.221,0.26-0.508,0.49-0.863,0.69c-0.355,0.2-0.745,0.35-1.167,0.45C84.071,11.371,83.64,11.421,83.201,11.421z"/>
		<path fill="#F2F2F2" d="M95.632,27.501h-4.161l5.429-13.41c1.387-0.24,2.875-0.435,4.465-0.585
			c1.589-0.15,3.027-0.225,4.313-0.225c1.353,0,2.52,0.11,3.501,0.33c0.981,0.22,1.776,0.525,2.385,0.915s1.057,0.855,1.345,1.395
			c0.287,0.54,0.432,1.13,0.432,1.77c0,0.42-0.068,0.855-0.203,1.305c-0.136,0.449-0.305,0.905-0.507,1.365l-2.893,7.14h-4.161
			l2.689-6.6c0.203-0.5,0.406-1.006,0.609-1.516c0.203-0.51,0.304-1.005,0.304-1.485c0-0.7-0.338-1.285-1.015-1.755
			c-0.677-0.47-1.912-0.705-3.704-0.705c-0.779,0-1.531,0.025-2.258,0.075c-0.728,0.05-1.328,0.125-1.802,0.225L95.632,27.501z"/>
		<path fill="#F2F2F2" d="M123.438,27.861c-1.658,0-3.095-0.146-4.313-0.436c-1.218-0.289-2.232-0.675-3.044-1.155
			c-0.812-0.479-1.413-1.034-1.801-1.664c-0.389-0.631-0.583-1.285-0.583-1.966c0-1.26,0.33-2.46,0.99-3.6
			c0.66-1.14,1.615-2.135,2.867-2.985c1.251-0.85,2.766-1.53,4.542-2.04c1.776-0.51,3.78-0.765,6.013-0.765
			c1.319,0,2.452,0.095,3.399,0.285c0.947,0.19,1.726,0.44,2.334,0.75s1.057,0.675,1.345,1.095c0.287,0.42,0.431,0.86,0.431,1.32
			c0,1.26-0.542,2.24-1.624,2.939c-1.083,0.7-2.486,1.226-4.211,1.575c-1.725,0.351-3.646,0.575-5.759,0.675
			c-2.115,0.101-4.187,0.171-6.216,0.21c-0.203,1.261,0.355,2.176,1.674,2.745c1.319,0.57,3.061,0.855,5.226,0.855
			c0.71,0,1.446-0.035,2.208-0.105c0.761-0.069,1.472-0.149,2.131-0.239c0.66-0.091,1.243-0.19,1.751-0.301
			c0.507-0.109,0.862-0.204,1.065-0.285l0.355,2.101c-0.643,0.2-1.692,0.415-3.146,0.645
			C127.616,27.746,125.739,27.861,123.438,27.861z M118.314,20.181c2.029-0.02,3.856-0.074,5.48-0.165
			c1.624-0.09,3.001-0.255,4.135-0.495c1.133-0.239,2.004-0.574,2.613-1.004s0.914-0.975,0.914-1.635c0-0.16-0.06-0.33-0.178-0.51
			c-0.119-0.18-0.322-0.35-0.609-0.51c-0.288-0.16-0.685-0.29-1.192-0.39s-1.134-0.15-1.877-0.15c-1.15,0-2.225,0.135-3.222,0.405
			c-0.998,0.27-1.903,0.63-2.715,1.08c-0.812,0.45-1.497,0.965-2.055,1.545S118.618,19.541,118.314,20.181z"/>
		<path fill="#F2F2F2" d="M144.191,25.761c0.744,0,1.48-0.034,2.207-0.104c0.729-0.07,1.379-0.185,1.955-0.346
			c0.574-0.159,1.039-0.379,1.395-0.659s0.533-0.62,0.533-1.021c0-0.56-0.398-1-1.193-1.32c-0.795-0.319-1.902-0.68-3.322-1.079
			c-0.678-0.2-1.338-0.4-1.98-0.601c-0.643-0.199-1.209-0.43-1.699-0.689s-0.888-0.575-1.192-0.945
			c-0.305-0.37-0.457-0.815-0.457-1.335c0-1.34,0.879-2.41,2.639-3.21c1.758-0.8,4.244-1.2,7.459-1.2c1.59,0,2.969,0.08,4.135,0.24
			c1.168,0.16,2.037,0.33,2.613,0.51l-1.572,2.1c-0.508-0.18-1.277-0.35-2.309-0.51c-1.033-0.16-2.191-0.24-3.477-0.24
			c-0.678,0-1.344,0.035-2.004,0.105c-0.66,0.07-1.244,0.185-1.75,0.345c-0.508,0.161-0.914,0.371-1.219,0.63
			s-0.457,0.59-0.457,0.99c0,0.48,0.414,0.885,1.244,1.215c0.828,0.33,1.867,0.655,3.119,0.976c0.779,0.18,1.506,0.38,2.184,0.6
			c0.676,0.221,1.26,0.476,1.75,0.765c0.49,0.291,0.871,0.626,1.141,1.006c0.271,0.38,0.406,0.83,0.406,1.35
			c0,0.76-0.254,1.425-0.76,1.995c-0.508,0.569-1.219,1.04-2.133,1.41c-0.912,0.37-2.004,0.649-3.271,0.84
			c-1.27,0.189-2.664,0.285-4.188,0.285c-1.928,0-3.594-0.131-4.997-0.391c-1.404-0.26-2.428-0.499-3.07-0.72l1.674-2.1
			c0.541,0.22,1.387,0.46,2.537,0.72C141.282,25.631,142.635,25.761,144.191,25.761z"/>
		<path fill="#F2F2F2" d="M157.334,22.521c0-1.219,0.347-2.39,1.04-3.51c0.693-1.12,1.708-2.109,3.045-2.97
			c1.336-0.86,2.977-1.545,4.922-2.055c1.944-0.51,4.186-0.765,6.723-0.765c1.387,0,2.604,0.055,3.653,0.165
			c1.049,0.11,2.03,0.275,2.943,0.495l-1.573,2.1c-0.575-0.16-1.26-0.31-2.055-0.45c-0.795-0.14-1.902-0.21-3.323-0.21
			c-1.726,0-3.282,0.195-4.669,0.585c-1.387,0.39-2.562,0.911-3.526,1.56c-0.964,0.65-1.699,1.391-2.207,2.22
			c-0.508,0.831-0.761,1.695-0.761,2.596c0,0.46,0.102,0.896,0.304,1.305c0.203,0.41,0.575,0.775,1.117,1.095
			c0.54,0.32,1.276,0.57,2.207,0.75c0.93,0.181,2.105,0.271,3.526,0.271c0.743,0,1.472-0.03,2.182-0.09
			c0.711-0.061,1.37-0.14,1.979-0.24c0.608-0.1,1.142-0.2,1.598-0.3c0.457-0.101,0.804-0.2,1.04-0.301l0.355,2.101
			c-0.608,0.22-1.599,0.44-2.968,0.66c-1.37,0.22-3.02,0.33-4.947,0.33c-3.519,0-6.165-0.5-7.941-1.5S157.334,24.081,157.334,22.521
			z"/>
		<path fill="#F2F2F2" d="M188.895,27.861c-1.657,0-3.095-0.146-4.312-0.436c-1.218-0.289-2.232-0.675-3.045-1.155
			c-0.812-0.479-1.413-1.034-1.801-1.664c-0.39-0.631-0.584-1.285-0.584-1.966c0-1.26,0.33-2.46,0.989-3.6
			c0.66-1.14,1.615-2.135,2.867-2.985c1.251-0.85,2.766-1.53,4.541-2.04c1.776-0.51,3.78-0.765,6.013-0.765
			c1.319,0,2.453,0.095,3.4,0.285c0.946,0.19,1.725,0.44,2.334,0.75c0.608,0.31,1.057,0.675,1.345,1.095
			c0.287,0.42,0.431,0.86,0.431,1.32c0,1.26-0.541,2.24-1.623,2.939c-1.083,0.7-2.486,1.226-4.212,1.575
			c-1.725,0.351-3.646,0.575-5.759,0.675c-2.114,0.101-4.187,0.171-6.216,0.21c-0.203,1.261,0.354,2.176,1.674,2.745
			c1.319,0.57,3.062,0.855,5.227,0.855c0.711,0,1.446-0.035,2.207-0.105c0.762-0.069,1.472-0.149,2.132-0.239
			c0.659-0.091,1.243-0.19,1.75-0.301c0.508-0.109,0.863-0.204,1.065-0.285l0.355,2.101c-0.643,0.2-1.691,0.415-3.146,0.645
			C193.072,27.746,191.194,27.861,188.895,27.861z M183.77,20.181c2.03-0.02,3.856-0.074,5.48-0.165
			c1.624-0.09,3.002-0.255,4.136-0.495c1.133-0.239,2.004-0.574,2.613-1.004c0.608-0.43,0.913-0.975,0.913-1.635
			c0-0.16-0.06-0.33-0.178-0.51c-0.119-0.18-0.322-0.35-0.609-0.51c-0.287-0.16-0.685-0.29-1.192-0.39
			c-0.507-0.1-1.134-0.15-1.877-0.15c-1.15,0-2.225,0.135-3.223,0.405s-1.902,0.63-2.714,1.08c-0.812,0.45-1.497,0.965-2.056,1.545
			C184.506,18.931,184.074,19.541,183.77,20.181z"/>
		<path fill="#F2F2F2" d="M204.727,27.501h-4.161l5.43-13.41c1.387-0.24,2.875-0.435,4.465-0.585s3.027-0.225,4.313-0.225
			c1.353,0,2.52,0.11,3.501,0.33c0.98,0.22,1.776,0.525,2.385,0.915c0.609,0.39,1.057,0.855,1.345,1.395
			c0.287,0.54,0.432,1.13,0.432,1.77c0,0.42-0.068,0.855-0.203,1.305c-0.136,0.449-0.305,0.905-0.508,1.365l-2.892,7.14h-4.161
			l2.689-6.6c0.203-0.5,0.406-1.006,0.608-1.516c0.203-0.51,0.305-1.005,0.305-1.485c0-0.7-0.339-1.285-1.015-1.755
			c-0.677-0.47-1.911-0.705-3.704-0.705c-0.778,0-1.531,0.025-2.258,0.075c-0.729,0.05-1.328,0.125-1.802,0.225L204.727,27.501z"/>
		<path fill="#F2F2F2" d="M222.79,22.521c0-1.219,0.347-2.39,1.04-3.51c0.693-1.12,1.708-2.109,3.045-2.97
			c1.336-0.86,2.977-1.545,4.922-2.055c1.944-0.51,4.186-0.765,6.723-0.765c1.387,0,2.604,0.055,3.653,0.165
			c1.049,0.11,2.03,0.275,2.943,0.495l-1.573,2.1c-0.575-0.16-1.26-0.31-2.055-0.45c-0.795-0.14-1.902-0.21-3.323-0.21
			c-1.726,0-3.282,0.195-4.669,0.585c-1.387,0.39-2.562,0.911-3.526,1.56c-0.964,0.65-1.699,1.391-2.207,2.22
			c-0.508,0.831-0.761,1.695-0.761,2.596c0,0.46,0.102,0.896,0.304,1.305c0.203,0.41,0.575,0.775,1.117,1.095
			c0.54,0.32,1.276,0.57,2.207,0.75c0.93,0.181,2.105,0.271,3.526,0.271c0.743,0,1.472-0.03,2.182-0.09
			c0.711-0.061,1.37-0.14,1.979-0.24c0.608-0.1,1.142-0.2,1.598-0.3c0.457-0.101,0.804-0.2,1.04-0.301l0.355,2.101
			c-0.608,0.22-1.599,0.44-2.968,0.66c-1.37,0.22-3.02,0.33-4.947,0.33c-3.519,0-6.165-0.5-7.941-1.5S222.79,24.081,222.79,22.521z"
			/>
		<path fill="#F2F2F2" d="M254.351,27.861c-1.657,0-3.095-0.146-4.312-0.436c-1.218-0.289-2.232-0.675-3.045-1.155
			c-0.812-0.479-1.413-1.034-1.801-1.664c-0.39-0.631-0.584-1.285-0.584-1.966c0-1.26,0.33-2.46,0.989-3.6
			c0.66-1.14,1.615-2.135,2.867-2.985c1.251-0.85,2.766-1.53,4.541-2.04c1.776-0.51,3.78-0.765,6.013-0.765
			c1.319,0,2.453,0.095,3.4,0.285c0.946,0.19,1.725,0.44,2.334,0.75c0.608,0.31,1.057,0.675,1.345,1.095
			c0.287,0.42,0.431,0.86,0.431,1.32c0,1.26-0.541,2.24-1.623,2.939c-1.083,0.7-2.486,1.226-4.212,1.575
			c-1.725,0.351-3.646,0.575-5.759,0.675c-2.114,0.101-4.187,0.171-6.216,0.21c-0.203,1.261,0.354,2.176,1.674,2.745
			c1.319,0.57,3.062,0.855,5.227,0.855c0.711,0,1.446-0.035,2.207-0.105c0.762-0.069,1.472-0.149,2.132-0.239
			c0.659-0.091,1.243-0.19,1.75-0.301c0.508-0.109,0.863-0.204,1.065-0.285l0.355,2.101c-0.643,0.2-1.691,0.415-3.146,0.645
			C258.528,27.746,256.65,27.861,254.351,27.861z M249.226,20.181c2.03-0.02,3.856-0.074,5.48-0.165
			c1.624-0.09,3.002-0.255,4.136-0.495c1.133-0.239,2.004-0.574,2.613-1.004c0.608-0.43,0.913-0.975,0.913-1.635
			c0-0.16-0.06-0.33-0.178-0.51c-0.119-0.18-0.322-0.35-0.609-0.51c-0.287-0.16-0.685-0.29-1.192-0.39
			c-0.507-0.1-1.134-0.15-1.877-0.15c-1.15,0-2.225,0.135-3.223,0.405s-1.902,0.63-2.714,1.08c-0.812,0.45-1.497,0.965-2.056,1.545
			C249.962,18.931,249.53,19.541,249.226,20.181z"/>
	</g>
	<g>
		<path fill="#F2F2F2" d="M265.704,11.456c0-0.976,0.151-1.832,0.456-2.568c0.304-0.736,0.699-1.348,1.188-1.836
			c0.488-0.488,1.044-0.852,1.668-1.092c0.624-0.24,1.256-0.36,1.896-0.36c0.64,0,1.271,0.12,1.896,0.36
			c0.624,0.24,1.18,0.604,1.668,1.092c0.488,0.488,0.88,1.096,1.177,1.824c0.296,0.729,0.443,1.572,0.443,2.532
			c0,0.976-0.152,1.828-0.456,2.556c-0.304,0.729-0.7,1.336-1.188,1.824c-0.488,0.488-1.044,0.856-1.668,1.104
			c-0.624,0.248-1.257,0.372-1.896,0.372c-0.656,0-1.292-0.125-1.907-0.372c-0.616-0.248-1.169-0.612-1.656-1.092
			c-0.488-0.48-0.88-1.083-1.176-1.812C265.852,13.26,265.704,12.416,265.704,11.456z M274.704,11.456
			c0-0.768-0.108-1.436-0.324-2.004s-0.504-1.04-0.864-1.416c-0.359-0.376-0.768-0.66-1.224-0.852s-0.916-0.288-1.38-0.288
			c-0.48,0-0.948,0.096-1.404,0.288s-0.864,0.476-1.224,0.852c-0.36,0.376-0.648,0.848-0.864,1.416s-0.324,1.22-0.324,1.956
			c0,0.768,0.108,1.436,0.324,2.004s0.504,1.04,0.864,1.416c0.359,0.376,0.768,0.66,1.224,0.852
			c0.456,0.192,0.924,0.288,1.404,0.288c0.479,0,0.943-0.096,1.392-0.288c0.448-0.192,0.853-0.476,1.212-0.852
			c0.36-0.376,0.648-0.844,0.864-1.404C274.596,12.864,274.704,12.208,274.704,11.456z M270.168,12.512v1.848h-1.271V8.648
			c0.207-0.063,0.451-0.116,0.731-0.156s0.572-0.06,0.876-0.06c0.912,0,1.584,0.176,2.016,0.528
			c0.433,0.352,0.648,0.864,0.648,1.536c0,0.784-0.312,1.352-0.936,1.704c0.176,0.272,0.371,0.596,0.588,0.972
			c0.216,0.376,0.428,0.772,0.636,1.188h-1.368c-0.208-0.384-0.396-0.724-0.563-1.02c-0.168-0.296-0.324-0.572-0.469-0.828H270.168z
			 M270.168,11.312h0.456c0.432,0,0.752-0.056,0.96-0.168c0.208-0.112,0.312-0.352,0.312-0.72c0-0.32-0.129-0.532-0.385-0.636
			s-0.52-0.156-0.792-0.156c-0.112,0-0.212,0.004-0.3,0.012c-0.088,0.008-0.172,0.02-0.252,0.036V11.312z"/>
	</g>
	<g>
		<path fill="#F2F2F2" d="M8.869,41.13c0.295,0,0.587-0.018,0.875-0.053c0.288-0.034,0.546-0.092,0.775-0.172
			c0.228-0.08,0.413-0.19,0.553-0.33c0.141-0.14,0.211-0.31,0.211-0.51c0-0.28-0.158-0.5-0.473-0.66s-0.754-0.34-1.318-0.54
			c-0.269-0.1-0.53-0.2-0.785-0.3c-0.255-0.101-0.48-0.216-0.674-0.346s-0.352-0.287-0.473-0.473C7.44,37.562,7.38,37.34,7.38,37.08
			c0-0.67,0.349-1.205,1.046-1.605c0.697-0.399,1.684-0.6,2.958-0.6c0.63,0,1.177,0.04,1.64,0.12s0.808,0.165,1.037,0.255
			l-0.624,1.05c-0.201-0.09-0.506-0.175-0.916-0.255c-0.41-0.08-0.869-0.12-1.379-0.12c-0.269,0-0.533,0.018-0.795,0.053
			S9.855,36.07,9.654,36.15s-0.362,0.185-0.483,0.314S8.99,36.76,8.99,36.96c0,0.24,0.164,0.442,0.493,0.607
			c0.329,0.165,0.741,0.328,1.238,0.487c0.309,0.09,0.597,0.19,0.865,0.301c0.269,0.109,0.5,0.237,0.694,0.382
			c0.194,0.146,0.345,0.312,0.453,0.503c0.107,0.189,0.161,0.415,0.161,0.675c0,0.38-0.101,0.713-0.302,0.997
			c-0.201,0.285-0.483,0.521-0.845,0.705c-0.362,0.186-0.795,0.325-1.298,0.42c-0.503,0.096-1.057,0.143-1.66,0.143
			c-0.765,0-1.426-0.064-1.982-0.194c-0.557-0.13-0.963-0.25-1.218-0.36l0.664-1.05c0.215,0.11,0.55,0.229,1.006,0.359
			C7.715,41.065,8.252,41.13,8.869,41.13z"/>
		<path fill="#F2F2F2" d="M35.737,41.805c-0.39,0.101-0.795,0.186-1.218,0.255c-0.423,0.07-0.869,0.105-1.338,0.105
			c-0.389,0-0.748-0.03-1.077-0.09c-0.329-0.061-0.617-0.157-0.866-0.293c-0.248-0.135-0.442-0.317-0.583-0.547
			c-0.141-0.23-0.211-0.521-0.211-0.87c0-0.22,0.023-0.45,0.071-0.69c0.047-0.24,0.11-0.484,0.191-0.734l0.946-2.865h-1.972
			l0.322-1.035h1.992l0.624-1.95l1.731-0.21l-0.705,2.16h3.583l-0.322,1.035h-3.603l-0.946,2.984
			c-0.067,0.19-0.127,0.375-0.181,0.556c-0.054,0.18-0.081,0.354-0.081,0.524c0,0.381,0.117,0.633,0.353,0.758
			c0.234,0.125,0.566,0.188,0.996,0.188c0.416,0,0.822-0.032,1.218-0.098c0.396-0.064,0.768-0.147,1.117-0.247L35.737,41.805z"/>
		<path fill="#F2F2F2" d="M55.098,42.18c-0.657,0-1.228-0.072-1.71-0.217c-0.483-0.146-0.886-0.338-1.208-0.578
			c-0.322-0.24-0.561-0.518-0.715-0.832c-0.154-0.315-0.231-0.643-0.231-0.982c0-0.63,0.131-1.23,0.393-1.801
			c0.262-0.569,0.641-1.066,1.137-1.492c0.496-0.425,1.097-0.765,1.801-1.02s1.5-0.383,2.385-0.383c0.523,0,0.973,0.048,1.349,0.143
			c0.375,0.095,0.684,0.22,0.926,0.375s0.419,0.338,0.533,0.548c0.114,0.21,0.171,0.43,0.171,0.659c0,0.631-0.215,1.12-0.644,1.471
			c-0.43,0.35-0.986,0.612-1.67,0.787c-0.685,0.175-1.446,0.288-2.285,0.338s-1.66,0.085-2.465,0.104
			c-0.081,0.63,0.141,1.088,0.664,1.373c0.523,0.284,1.214,0.427,2.073,0.427c0.282,0,0.573-0.017,0.875-0.052
			c0.302-0.035,0.583-0.075,0.845-0.12s0.493-0.095,0.694-0.15c0.201-0.055,0.342-0.103,0.423-0.143l0.141,1.05
			c-0.255,0.101-0.671,0.208-1.248,0.323C56.755,42.122,56.011,42.18,55.098,42.18z M53.065,38.34
			c0.805-0.01,1.53-0.037,2.174-0.082s1.19-0.128,1.64-0.248c0.449-0.12,0.795-0.287,1.037-0.502
			c0.241-0.215,0.362-0.488,0.362-0.817c0-0.08-0.024-0.165-0.071-0.256c-0.047-0.09-0.127-0.175-0.241-0.255
			c-0.114-0.08-0.272-0.145-0.473-0.194s-0.45-0.075-0.745-0.075c-0.456,0-0.882,0.067-1.278,0.202
			c-0.396,0.135-0.755,0.315-1.077,0.54c-0.322,0.226-0.594,0.482-0.815,0.772C53.357,37.715,53.187,38.021,53.065,38.34z"/>
		<path fill="#F2F2F2" d="M74.5,42l2.134-6.6c1.422-0.34,2.851-0.511,4.287-0.511c0.416,0,0.785,0.013,1.107,0.038
			c0.322,0.024,0.718,0.072,1.188,0.143l-0.624,1.095c-0.201-0.04-0.386-0.072-0.553-0.098c-0.168-0.024-0.326-0.045-0.473-0.06
			c-0.148-0.016-0.299-0.025-0.453-0.03s-0.332-0.008-0.533-0.008c-0.416,0-0.842,0.021-1.278,0.061s-0.869,0.1-1.298,0.18L76.15,42
			H74.5z"/>
		<path fill="#F2F2F2" d="M100.905,42.18c-0.657,0-1.228-0.072-1.71-0.217c-0.483-0.146-0.886-0.338-1.208-0.578
			c-0.322-0.24-0.561-0.518-0.715-0.832c-0.154-0.315-0.231-0.643-0.231-0.982c0-0.63,0.131-1.23,0.393-1.801
			c0.262-0.569,0.641-1.066,1.137-1.492c0.496-0.425,1.097-0.765,1.801-1.02s1.5-0.383,2.385-0.383c0.523,0,0.973,0.048,1.349,0.143
			c0.375,0.095,0.684,0.22,0.926,0.375s0.419,0.338,0.533,0.548c0.114,0.21,0.171,0.43,0.171,0.659c0,0.631-0.215,1.12-0.644,1.471
			c-0.43,0.35-0.986,0.612-1.67,0.787c-0.685,0.175-1.446,0.288-2.285,0.338s-1.66,0.085-2.465,0.104
			c-0.081,0.63,0.141,1.088,0.664,1.373c0.523,0.284,1.214,0.427,2.073,0.427c0.282,0,0.573-0.017,0.875-0.052
			c0.302-0.035,0.583-0.075,0.845-0.12s0.493-0.095,0.694-0.15c0.201-0.055,0.342-0.103,0.423-0.143l0.141,1.05
			c-0.255,0.101-0.671,0.208-1.248,0.323C102.562,42.122,101.817,42.18,100.905,42.18z M98.872,38.34
			c0.805-0.01,1.53-0.037,2.174-0.082s1.19-0.128,1.64-0.248c0.449-0.12,0.795-0.287,1.037-0.502
			c0.241-0.215,0.362-0.488,0.362-0.817c0-0.08-0.024-0.165-0.071-0.256c-0.047-0.09-0.127-0.175-0.241-0.255
			c-0.114-0.08-0.272-0.145-0.473-0.194s-0.45-0.075-0.745-0.075c-0.456,0-0.882,0.067-1.278,0.202
			c-0.396,0.135-0.755,0.315-1.077,0.54c-0.322,0.226-0.594,0.482-0.815,0.772C99.164,37.715,98.993,38.021,98.872,38.34z"/>
		<path fill="#F2F2F2" d="M123.285,42.165c-0.993,0-1.768-0.215-2.325-0.646c-0.557-0.43-0.835-1.024-0.835-1.784
			c0-0.521,0.097-1.065,0.292-1.636c0.194-0.569,0.51-1.095,0.946-1.574c0.436-0.48,0.997-0.875,1.681-1.186
			c0.684-0.31,1.509-0.465,2.476-0.465c0.993,0,1.768,0.215,2.325,0.645c0.556,0.431,0.835,1.025,0.835,1.785
			c0,0.521-0.098,1.065-0.292,1.636c-0.194,0.569-0.51,1.095-0.946,1.574c-0.436,0.48-0.996,0.876-1.681,1.186
			C125.076,42.01,124.251,42.165,123.285,42.165z M123.567,41.055c0.536,0,1.02-0.112,1.449-0.337
			c0.43-0.226,0.792-0.513,1.087-0.862c0.295-0.351,0.52-0.743,0.674-1.178c0.154-0.436,0.231-0.857,0.231-1.268
			c0-0.45-0.134-0.803-0.402-1.058c-0.269-0.255-0.725-0.383-1.369-0.383c-0.537,0-1.02,0.112-1.449,0.338
			c-0.43,0.225-0.792,0.515-1.087,0.87c-0.295,0.354-0.52,0.75-0.674,1.185c-0.155,0.436-0.231,0.857-0.231,1.268
			c0,0.45,0.134,0.8,0.402,1.05C122.466,40.93,122.923,41.055,123.567,41.055z"/>
		<path fill="#F2F2F2" d="M148.201,34.875c0.577,0,1.08,0.062,1.51,0.188c0.429,0.125,0.781,0.295,1.057,0.51
			c0.274,0.216,0.479,0.473,0.613,0.772c0.135,0.3,0.202,0.625,0.202,0.976c0,0.62-0.125,1.22-0.373,1.8s-0.634,1.095-1.157,1.545
			s-1.184,0.812-1.982,1.088c-0.798,0.274-1.74,0.412-2.827,0.412c-0.135,0-0.312-0.013-0.533-0.037
			c-0.222-0.025-0.393-0.048-0.514-0.068l-0.765,2.415h-1.65l2.938-9.149c0.241-0.07,0.513-0.135,0.815-0.195
			c0.302-0.06,0.606-0.107,0.915-0.143s0.614-0.062,0.916-0.082C147.668,34.885,147.946,34.875,148.201,34.875z M144.559,40.98
			c0.121,0.02,0.278,0.037,0.473,0.052c0.194,0.016,0.359,0.022,0.493,0.022c0.685,0,1.299-0.098,1.842-0.292
			c0.543-0.195,1.006-0.458,1.389-0.788s0.674-0.712,0.875-1.147c0.202-0.435,0.303-0.887,0.303-1.357
			c0-0.199-0.03-0.392-0.091-0.577c-0.061-0.185-0.171-0.35-0.332-0.495c-0.161-0.145-0.383-0.26-0.664-0.345
			c-0.282-0.085-0.638-0.128-1.067-0.128c-0.295,0-0.597,0.021-0.905,0.061s-0.55,0.074-0.725,0.104L144.559,40.98z"/>
		<path fill="#F2F2F2" d="M165.228,42l3.261-10.185l1.73-0.21l-1.146,3.539c0.268-0.079,0.557-0.142,0.865-0.188
			c0.309-0.045,0.617-0.067,0.926-0.067c0.536,0,0.999,0.056,1.389,0.165c0.389,0.11,0.704,0.263,0.946,0.458
			c0.241,0.194,0.419,0.428,0.533,0.697c0.113,0.271,0.171,0.565,0.171,0.885c0,0.21-0.027,0.431-0.081,0.66
			c-0.054,0.23-0.12,0.465-0.201,0.705L172.474,42h-1.65l1.046-3.27c0.081-0.25,0.164-0.508,0.252-0.773
			c0.087-0.265,0.131-0.517,0.131-0.757c0-0.351-0.135-0.643-0.402-0.878c-0.269-0.234-0.759-0.353-1.47-0.353
			c-0.604,0-1.141,0.07-1.609,0.21L166.858,42H165.228z"/>
		<path fill="#F2F2F2" d="M191.995,42.165c-0.993,0-1.768-0.215-2.324-0.646c-0.557-0.43-0.835-1.024-0.835-1.784
			c0-0.521,0.097-1.065,0.292-1.636c0.194-0.569,0.51-1.095,0.945-1.574c0.436-0.48,0.996-0.875,1.681-1.186
			c0.685-0.31,1.51-0.465,2.476-0.465c0.993,0,1.768,0.215,2.324,0.645c0.557,0.431,0.836,1.025,0.836,1.785
			c0,0.521-0.098,1.065-0.292,1.636c-0.195,0.569-0.511,1.095-0.946,1.574c-0.437,0.48-0.996,0.876-1.681,1.186
			C193.787,42.01,192.962,42.165,191.995,42.165z M192.277,41.055c0.536,0,1.02-0.112,1.449-0.337
			c0.429-0.226,0.791-0.513,1.087-0.862c0.295-0.351,0.52-0.743,0.674-1.178c0.154-0.436,0.231-0.857,0.231-1.268
			c0-0.45-0.135-0.803-0.402-1.058c-0.269-0.255-0.725-0.383-1.369-0.383c-0.536,0-1.02,0.112-1.448,0.338
			c-0.43,0.225-0.792,0.515-1.087,0.87c-0.296,0.354-0.521,0.75-0.675,1.185c-0.154,0.436-0.231,0.857-0.231,1.268
			c0,0.45,0.134,0.8,0.402,1.05S191.633,41.055,192.277,41.055z"/>
		<path fill="#F2F2F2" d="M213.047,42h-1.65l2.154-6.705c0.55-0.12,1.14-0.218,1.771-0.292c0.631-0.075,1.201-0.113,1.711-0.113
			c0.536,0,0.999,0.056,1.389,0.165c0.389,0.11,0.704,0.263,0.946,0.458c0.241,0.194,0.419,0.428,0.533,0.697
			c0.113,0.271,0.171,0.565,0.171,0.885c0,0.21-0.027,0.428-0.081,0.652c-0.054,0.226-0.12,0.453-0.201,0.683L218.643,42h-1.65
			l1.066-3.3c0.08-0.25,0.161-0.503,0.241-0.758c0.081-0.255,0.121-0.502,0.121-0.742c0-0.351-0.135-0.643-0.402-0.878
			c-0.269-0.234-0.759-0.353-1.47-0.353c-0.309,0-0.607,0.013-0.896,0.038c-0.288,0.024-0.526,0.062-0.714,0.112L213.047,42z"/>
		<path fill="#F2F2F2" d="M239.171,38.925c-0.067,0.2-0.124,0.391-0.171,0.57c-0.048,0.18-0.071,0.354-0.071,0.524
			c0,0.28,0.098,0.513,0.292,0.698c0.194,0.185,0.567,0.277,1.117,0.277c0.229,0,0.449-0.013,0.664-0.038
			c0.215-0.024,0.416-0.057,0.604-0.097l-0.101,1.05c-0.094,0.02-0.265,0.048-0.513,0.082c-0.249,0.035-0.601,0.053-1.057,0.053
			c-0.497,0-0.916-0.05-1.258-0.15c-0.343-0.1-0.617-0.234-0.825-0.404s-0.355-0.37-0.443-0.601
			c-0.087-0.229-0.131-0.479-0.131-0.75c0-0.21,0.023-0.425,0.071-0.645c0.047-0.22,0.104-0.445,0.171-0.675l0.905-2.745h-2.696
			l0.321-1.035h4.348L239.171,38.925z M239.674,33.96c-0.349,0-0.638-0.075-0.865-0.225c-0.229-0.15-0.343-0.37-0.343-0.66
			c0-0.351,0.147-0.625,0.443-0.825c0.295-0.2,0.624-0.3,0.986-0.3c0.349,0,0.641,0.08,0.875,0.24
			c0.234,0.159,0.353,0.385,0.353,0.675c0,0.17-0.044,0.32-0.131,0.45c-0.088,0.13-0.201,0.245-0.343,0.345
			c-0.141,0.1-0.295,0.175-0.463,0.225C240.02,33.936,239.848,33.96,239.674,33.96z"/>
		<path fill="#F2F2F2" d="M257.364,39.51c0-0.609,0.138-1.194,0.413-1.755c0.274-0.56,0.677-1.055,1.207-1.485
			c0.53-0.43,1.181-0.772,1.952-1.027s1.661-0.382,2.667-0.382c0.55,0,1.033,0.027,1.449,0.082c0.416,0.056,0.805,0.138,1.167,0.248
			l-0.624,1.05c-0.228-0.08-0.5-0.155-0.814-0.226c-0.315-0.069-0.755-0.104-1.318-0.104c-0.685,0-1.302,0.098-1.852,0.292
			c-0.551,0.195-1.017,0.455-1.399,0.78c-0.382,0.325-0.674,0.695-0.875,1.11s-0.302,0.848-0.302,1.297
			c0,0.23,0.04,0.448,0.12,0.653c0.081,0.205,0.229,0.387,0.443,0.547c0.214,0.16,0.506,0.285,0.875,0.375s0.836,0.135,1.399,0.135
			c0.295,0,0.583-0.015,0.865-0.045c0.281-0.029,0.543-0.069,0.785-0.12c0.241-0.05,0.452-0.1,0.634-0.149
			c0.181-0.05,0.318-0.1,0.412-0.15l0.142,1.05c-0.242,0.11-0.635,0.221-1.178,0.33c-0.544,0.11-1.197,0.165-1.962,0.165
			c-1.396,0-2.445-0.25-3.15-0.75C257.717,40.93,257.364,40.29,257.364,39.51z"/>
	</g>
</g>
</svg>
